<svg id="envelope-square" xmlns="http://www.w3.org/2000/svg" width="52" height="52" viewBox="0 0 52 52">
  <path id="envelope-square-2" data-name="envelope-square" d="M46.429,32H5.571A5.571,5.571,0,0,0,0,37.571V78.429A5.571,5.571,0,0,0,5.571,84H46.429A5.571,5.571,0,0,0,52,78.429V37.571A5.571,5.571,0,0,0,46.429,32ZM20.674,58.709C10.148,51.069,10.255,51.05,7.429,48.85V45.929a2.786,2.786,0,0,1,2.786-2.786H41.786a2.786,2.786,0,0,1,2.786,2.786V48.85c-2.829,2.2-2.72,2.22-13.246,9.859C30.107,59.6,27.682,61.74,26,61.714,24.317,61.739,21.895,59.6,20.674,58.709Zm23.9-5.145V70.071a2.786,2.786,0,0,1-2.786,2.786H10.214a2.786,2.786,0,0,1-2.786-2.786V53.563c1.62,1.253,3.869,2.929,11.062,8.15,1.644,1.2,4.408,3.731,7.509,3.715,3.121.016,5.924-2.558,7.512-3.717C40.7,56.492,42.951,54.816,44.571,53.563Z" transform="translate(0 -32)"/>
</svg>
