<svg id="github-square" xmlns="http://www.w3.org/2000/svg" width="52" height="52" viewBox="0 0 52 52">
  <path id="github-square-2" data-name="github-square" d="M46.429,32H5.571A5.573,5.573,0,0,0,0,37.571V78.429A5.573,5.573,0,0,0,5.571,84H46.429A5.573,5.573,0,0,0,52,78.429V37.571A5.573,5.573,0,0,0,46.429,32ZM32.187,76.537c-.975.174-1.335-.429-1.335-.929,0-.627.023-3.83.023-6.419a4.522,4.522,0,0,0-1.312-3.563c4.295-.476,8.821-1.068,8.821-8.485A5.959,5.959,0,0,0,36.4,52.614a7.259,7.259,0,0,0-.2-5.223c-1.613-.5-5.3,2.078-5.3,2.078a18.26,18.26,0,0,0-9.657,0s-3.691-2.577-5.3-2.078a7.2,7.2,0,0,0-.2,5.223,5.829,5.829,0,0,0-1.811,4.527c0,7.382,4.329,8.009,8.624,8.485a4.207,4.207,0,0,0-1.23,2.588c-1.1.5-3.923,1.358-5.606-1.613a4.044,4.044,0,0,0-2.96-1.985c-1.88-.023-.128,1.184-.128,1.184,1.254.58,2.136,2.809,2.136,2.809,1.126,3.447,6.512,2.287,6.512,2.287,0,1.613.023,4.237.023,4.713,0,.5-.348,1.1-1.335.929A19.257,19.257,0,0,1,6.941,58.163a18.42,18.42,0,0,1,18.8-18.746c10.655,0,19.291,8.09,19.291,18.746A19.08,19.08,0,0,1,32.187,76.537ZM20.8,69.445c-.221.046-.429-.046-.453-.2-.023-.174.128-.325.348-.371.221-.023.429.07.453.221s-.116.3-.348.348Zm-1.1-.1c0,.151-.174.279-.406.279-.255.023-.429-.1-.429-.279,0-.151.174-.279.406-.279C19.488,69.038,19.7,69.166,19.7,69.34Zm-1.59-.128c-.046.151-.279.221-.476.151-.221-.046-.371-.221-.325-.371s.279-.221.476-.174C18.014,68.888,18.165,69.062,18.107,69.213Zm-1.428-.627c-.1.128-.325.1-.5-.07-.174-.151-.221-.371-.1-.476.1-.128.325-.1.5.07C16.726,68.261,16.784,68.493,16.679,68.586Zm-1.056-1.056c-.1.07-.3,0-.429-.174s-.128-.371,0-.453c.128-.1.325-.023.429.151A.34.34,0,0,1,15.623,67.529ZM14.869,66.4c-.1.1-.279.046-.406-.07-.128-.151-.151-.325-.046-.406.1-.1.279-.046.406.07C14.95,66.148,14.973,66.322,14.869,66.4Zm-.778-.859a.219.219,0,0,1-.325.046c-.151-.07-.221-.2-.174-.3a.273.273,0,0,1,.325-.046C14.068,65.324,14.137,65.452,14.091,65.545Z" transform="translate(0 -32)"/>
</svg>
