<svg id="linkedin" xmlns="http://www.w3.org/2000/svg" width="52" height="52" viewBox="0 0 52 52">
  <path id="linkedin-2" data-name="linkedin" d="M48.286,32H3.7A3.73,3.73,0,0,0,0,35.749v44.5A3.73,3.73,0,0,0,3.7,84H48.286A3.74,3.74,0,0,0,52,80.251v-44.5A3.74,3.74,0,0,0,48.286,32ZM15.716,76.571H8.009V51.755h7.719V76.571ZM11.862,48.366A4.469,4.469,0,1,1,16.331,43.9,4.471,4.471,0,0,1,11.862,48.366ZM44.606,76.571H36.9V64.5c0-2.879-.058-6.581-4-6.581-4.016,0-4.631,3.134-4.631,6.372v12.28H20.556V51.755H27.95v3.389h.1a8.118,8.118,0,0,1,7.3-4c7.8,0,9.251,5.142,9.251,11.828Z" transform="translate(0 -32)"/>
</svg>
